<?xml version="1.0" encoding="UTF-8"?>
<svg width="1424px" height="377px" viewBox="0 0 1424 377" version="1.1" xmlns="http://www.w3.org/2000/svg" xmlns:xlink="http://www.w3.org/1999/xlink">
    <!-- Generator: Sketch 62 (91390) - https://sketch.com -->
    <title>activity-stream</title>
    <desc>Created with Sketch.</desc>
    <g id="Page-1" stroke="none" stroke-width="1" fill="none" fill-rule="evenodd">
        <ellipse id="Hill-background" fill="#FFFFFF" cx="404.5" cy="424" rx="404.5" ry="244"></ellipse>
        <ellipse id="Hill-background" fill="#FFFFFF" cx="1019.5" cy="405" rx="404.5" ry="244"></ellipse>
        <ellipse id="Hill-background" fill="#FFFFFF" cx="695.5" cy="457" rx="422.5" ry="244"></ellipse>
        <ellipse id="Hill-background" fill="#FFFFFF" cx="497.5" cy="496" rx="404.5" ry="244"></ellipse>
        <ellipse id="Hill-background" fill="#FFFFFF" cx="1098" cy="509" rx="303" ry="244"></ellipse>
        <g id="Cloud-background" transform="translate(169.864330, 0.193918)" fill="#FFFFFF">
            <path d="M49.5955996,134.167035 C47.6157496,134.167035 45.6584834,134.124039 43.7764968,134.038495 C33.1340331,133.559269 21.4773498,121.14507 15.9128284,109.708135 C9.57566597,96.6816911 11.1654315,86.0307763 20.165434,81.2161203 C43.1113,68.9447938 144.480578,42.1614224 175.114531,40.2754208 C176.284784,40.203313 177.469409,40.1670351 178.634188,40.1670351 C202.050893,40.1670351 219.840115,54.7014738 224.690166,68.3768883 C228.827799,80.0449272 223.569871,89.8068102 210.967403,93.8533606 C203.058953,96.3932596 194.903449,99.1037989 186.269579,101.973334 C140.869901,117.063138 89.4109099,134.167035 49.6003901,134.167035 L49.5955996,134.167035" id="Fill-1" transform="translate(119.079495, 87.167035) rotate(23.000000) translate(-119.079495, -87.167035) "></path>
            <path d="M179.626222,39.5577662 C178.400611,39.5577662 177.155819,39.5956566 175.926098,39.6709916 C158.354445,40.7466331 122.171872,49.0459673 94.1698558,56.4546542 C66.4699603,63.7835484 32.3857915,73.9987993 19.8029018,80.6893518 C14.4551565,83.5329146 11.5141022,87.9790183 11.0598932,93.903739 C10.6906344,98.7238432 12.034079,104.415426 14.9443047,110.362881 C20.8462807,122.424955 32.8927517,134.907389 44.4966601,135.427156 C46.4244791,135.514081 48.4283422,135.557766 50.4507024,135.557766 C90.7554102,135.557766 142.484535,118.463402 188.123971,103.381242 C196.759422,100.527872 204.916001,97.8327502 212.82047,95.308804 C219.902841,93.0478618 224.925858,89.1424763 227.346251,84.0147913 C229.476854,79.5022679 229.550157,74.1650713 227.557941,68.5800268 C224.950521,61.2698549 218.907418,54.0613184 210.976231,48.8030229 C201.855058,42.7543784 191.01433,39.5577662 179.626222,39.5577662 M179.626222,41.9996908 C218.289475,41.9996908 241.8597,83.3180537 211.166684,93.1165103 C161.392096,109.00908 97.3212301,133.115842 50.4507024,133.115842 C48.5242536,133.115842 46.6210975,133.074831 44.7549358,132.991026 C27.8745306,132.235001 1.86473095,93.3835261 22.1773939,82.5803054 C43.9849044,70.9849526 144.75421,44.0319534 176.278229,42.1026635 C177.405873,42.0335693 178.520501,41.9996908 179.626222,41.9996908" id="Fill-2" transform="translate(120.000000, 87.557766) rotate(23.000000) translate(-120.000000, -87.557766) "></path>
            <path d="M185.75885,58.7927506 L185.75885,61.2320988 L185.756104,58.7927506 C167.825829,58.7940865 144.726516,62.3658302 117.097428,69.410016 C79.9006748,78.8939954 59.3130971,87.0353981 50.3455567,95.8077895 C41.5668428,104.394491 44.3772672,112.666812 47.6326354,122.245195 C47.9910624,123.301889 48.3618489,124.394653 48.7223358,125.500331 C51.6893145,134.620501 45.6049825,143.236592 45.5431848,143.322535 C44.9149076,144.196657 45.1401261,145.229306 46.1172172,145.956479 C46.8436841,146.496627 47.8839463,146.792751 48.953734,146.792751 C49.3238339,146.792751 49.6980536,146.757572 50.0626604,146.684098 C50.3599762,146.624428 79.9851317,140.701059 94.7705871,138.715916 C112.709101,136.30952 142.705043,128.478936 164.794993,121.952633 C175.536129,118.779432 211.246303,107.943079 219.782632,101.736947 C226.396365,96.9303885 232.924954,90.7416221 231.19393,81.2843607 C229.655166,72.8846846 221.707976,58.7927506 185.75885,58.7927506 M185.751984,61.2320988 C220.338812,61.2307629 226.239811,74.9125765 227.4586,81.5720239 C228.851109,89.1786225 224.62277,94.5556086 216.974954,100.113386 C205.500485,108.456509 126.132946,132.017283 94.0084149,136.327332 C78.8720856,138.359232 48.9530474,144.353402 48.9530474,144.353402 C48.9530474,144.353402 55.6629099,135.019043 52.4027352,124.996698 C45.7388777,104.513386 36.5474921,92.5686842 118.474145,71.6805959 C148.339625,64.065982 170.016903,61.2329894 185.751984,61.2320988" id="Fill-10" transform="translate(137.976241, 102.792751) rotate(23.000000) translate(-137.976241, -102.792751) "></path>
            <path d="M373.431164,140.120961 C371.719611,140.120961 370.027582,140.077508 368.400631,139.991053 C359.20037,139.506729 349.123331,126.960464 344.31288,115.40186 C338.834492,102.236837 340.208822,91.4726143 347.989198,86.6067385 C367.825578,74.204866 455.457897,47.1365651 481.94052,45.2304997 C482.952188,45.1576248 483.97628,45.1209609 484.983214,45.1209609 C505.226627,45.1209609 520.605161,59.8100214 524.797962,73.630919 C528.374888,85.423086 523.829482,95.2888188 512.934826,99.3784176 C506.098082,101.945337 499.047763,104.684712 491.583903,107.584774 C452.336518,122.835107 407.850941,140.120961 373.435305,140.120961 L373.431164,140.120961" id="Fill-1" transform="translate(433.499017, 92.620961) rotate(9.000000) translate(-433.499017, -92.620961) "></path>
            <path d="M485.404944,44 C484.347995,44 483.274504,44.0382851 482.214011,44.1144049 C467.060476,45.2012509 435.857156,53.5870365 411.708628,61.0728972 C387.820645,68.4781341 358.426958,78.7997938 347.575659,85.5600396 C342.963842,88.4332228 340.427519,92.9256401 340.035816,98.9120766 C339.717373,103.78239 340.87594,109.533261 343.385676,115.542668 C348.475453,127.730388 358.864153,140.342848 368.871193,140.868029 C370.533716,140.95586 372.261818,141 374.005872,141 C408.76406,141 453.374498,123.72757 492.733278,108.488303 C500.180364,105.605211 507.214478,102.882015 514.031176,100.331778 C520.138909,98.0472841 524.470685,94.1012175 526.557996,88.9201191 C528.395397,84.3605903 528.458613,78.9677978 526.740555,73.3245758 C524.491954,65.9382563 519.280471,58.6546309 512.440732,53.3415615 C504.574765,47.2299102 495.225881,44 485.404944,44 M485.404944,46.4673613 C518.747566,46.4673613 539.074182,88.2161238 512.604975,98.1166476 C469.680101,114.174765 414.426327,138.532639 374.005872,138.532639 C372.344531,138.532639 370.703277,138.491201 369.093926,138.406523 C354.536513,137.642623 332.106043,98.3864449 349.623386,87.4706907 C368.429863,75.7545529 455.331832,48.5207933 482.517684,46.5714067 C483.490148,46.5015927 484.451386,46.4673613 485.404944,46.4673613" id="Fill-2" transform="translate(433.984165, 92.500000) rotate(9.000000) translate(-433.984165, -92.500000) "></path>
            <path d="M493.791615,58.8046465 L493.791615,61.2717146 L493.78925,58.8046465 C478.351955,58.8059976 458.464312,62.4183293 434.676701,69.5425627 C402.651689,79.1343146 384.926555,87.3682332 377.205838,96.2403109 C369.647694,104.924589 372.067364,113.290913 374.870115,122.978141 C375.178707,124.046844 375.49794,125.152025 375.808306,126.270267 C378.362764,135.494076 373.124381,144.208077 373.071176,144.294997 C372.530253,145.179052 372.724157,146.223435 373.565396,146.958872 C374.190857,147.505158 375.086484,147.804647 376.007531,147.804647 C376.326173,147.804647 376.648362,147.769068 376.962275,147.694759 C377.218253,147.634411 402.724403,141.643732 415.454127,139.63603 C430.898516,137.202288 456.723899,129.282721 475.742519,122.682255 C484.990235,119.472995 515.735358,108.513502 523.084818,102.236845 C528.778994,97.3756667 534.399865,91.1165734 532.909518,81.5518432 C531.5847,73.0567161 524.742466,58.8046465 493.791615,58.8046465 M493.785703,61.2717146 C523.563668,61.2703635 528.644207,75.1076523 529.693538,81.8427752 C530.892437,89.5358124 527.251995,94.9739006 520.667512,100.594835 C510.788424,109.032766 442.455944,132.861275 414.797925,137.220303 C401.766112,139.275292 376.00694,145.337578 376.00694,145.337578 C376.00694,145.337578 381.78388,135.897147 378.976992,125.760911 C373.23966,105.044835 365.326221,92.9643975 435.862002,71.8389447 C461.575063,64.1378011 480.238388,61.2726153 493.785703,61.2717146" id="Fill-10" transform="translate(452.652577, 103.304647) rotate(9.000000) translate(-452.652577, -103.304647) "></path>
            <path d="M721.431164,124.120961 C719.719611,124.120961 718.027582,124.077508 716.400631,123.991053 C707.20037,123.506729 697.123331,110.960464 692.31288,99.4018596 C686.834492,86.2368367 688.208822,75.4726143 695.989198,70.6067385 C715.825578,58.204866 803.457897,31.1365651 829.94052,29.2304997 C830.952188,29.1576248 831.97628,29.1209609 832.983214,29.1209609 C853.226627,29.1209609 868.605161,43.8100214 872.797962,57.630919 C876.374888,69.423086 871.829482,79.2888188 860.934826,83.3784176 C854.098082,85.9453368 847.047763,88.6847117 839.583903,91.5847736 C800.336518,106.835107 755.850941,124.120961 721.435305,124.120961 L721.431164,124.120961" id="Fill-1" transform="translate(781.499017, 76.620961) rotate(9.000000) translate(-781.499017, -76.620961) "></path>
            <path d="M833.404944,28 C832.347995,28 831.274504,28.0382851 830.214011,28.1144049 C815.060476,29.2012509 783.857156,37.5870365 759.708628,45.0728972 C735.820645,52.4781341 706.426958,62.7997938 695.575659,69.5600396 C690.963842,72.4332228 688.427519,76.9256401 688.035816,82.9120766 C687.717373,87.7823903 688.87594,93.5332609 691.385676,99.5426685 C696.475453,111.730388 706.864153,124.342848 716.871193,124.868029 C718.533716,124.95586 720.261818,125 722.005872,125 C756.76406,125 801.374498,107.72757 840.733278,92.4883032 C848.180364,89.6052109 855.214478,86.8820151 862.031176,84.3317778 C868.138909,82.0472841 872.470685,78.1012175 874.557996,72.9201191 C876.395397,68.3605903 876.458613,62.9677978 874.740555,57.3245758 C872.491954,49.9382563 867.280471,42.6546309 860.440732,37.3415615 C852.574765,31.2299102 843.225881,28 833.404944,28 M833.404944,30.4673613 C866.747566,30.4673613 887.074182,72.2161238 860.604975,82.1166476 C817.680101,98.1747648 762.426327,122.532639 722.005872,122.532639 C720.344531,122.532639 718.703277,122.491201 717.093926,122.406523 C702.536513,121.642623 680.106043,82.3864449 697.623386,71.4706907 C716.429863,59.7545529 803.331832,32.5207933 830.517684,30.5714067 C831.490148,30.5015927 832.451386,30.4673613 833.404944,30.4673613" id="Fill-2" transform="translate(781.984165, 76.500000) rotate(9.000000) translate(-781.984165, -76.500000) "></path>
            <path d="M841.791615,42.8046465 L841.791615,45.2717146 L841.78925,42.8046465 C826.351955,42.8059976 806.464312,46.4183293 782.676701,53.5425627 C750.651689,63.1343146 732.926555,71.3682332 725.205838,80.2403109 C717.647694,88.9245888 720.067364,97.2909131 722.870115,106.978141 C723.178707,108.046844 723.49794,109.152025 723.808306,110.270267 C726.362764,119.494076 721.124381,128.208077 721.071176,128.294997 C720.530253,129.179052 720.724157,130.223435 721.565396,130.958872 C722.190857,131.505158 723.086484,131.804647 724.007531,131.804647 C724.326173,131.804647 724.648362,131.769068 724.962275,131.694759 C725.218253,131.634411 750.724403,125.643732 763.454127,123.63603 C778.898516,121.202288 804.723899,113.282721 823.742519,106.682255 C832.990235,103.472995 863.735358,92.5135019 871.084818,86.2368447 C876.778994,81.3756667 882.399865,75.1165734 880.909518,65.5518432 C879.5847,57.0567161 872.742466,42.8046465 841.791615,42.8046465 M841.785703,45.2717146 C871.563668,45.2703635 876.644207,59.1076523 877.693538,65.8427752 C878.892437,73.5358124 875.251995,78.9739006 868.667512,84.5948348 C858.788424,93.0327661 790.455944,116.861275 762.797925,121.220303 C749.766112,123.275292 724.00694,129.337578 724.00694,129.337578 C724.00694,129.337578 729.78388,119.897147 726.976992,109.760911 C721.23966,89.0448348 713.326221,76.9643975 783.862002,55.8389447 C809.575063,48.1378011 828.238388,45.2726153 841.785703,45.2717146" id="Fill-10" transform="translate(800.652577, 87.304647) rotate(9.000000) translate(-800.652577, -87.304647) "></path>
            <path d="M1072.47647,156.806082 C1070.50587,156.806082 1068.55775,156.762629 1066.68456,156.676175 C1056.09182,156.19185 1044.48961,143.645586 1038.95109,132.086981 C1032.64354,118.921958 1034.22588,108.157736 1043.18382,103.29186 C1066.02247,90.8899875 1166.91806,63.8216866 1197.40886,61.9156212 C1198.57364,61.8427462 1199.75273,61.8060824 1200.91207,61.8060824 C1224.21935,61.8060824 1241.92545,76.4951429 1246.75283,90.3160405 C1250.87113,102.108207 1245.63777,111.97394 1233.0942,116.063539 C1225.2227,118.630458 1217.10531,121.369833 1208.51178,124.269895 C1163.32425,139.520229 1112.10572,156.806082 1072.48123,156.806082 L1072.47647,156.806082" id="Fill-1" transform="translate(1141.635670, 109.306082) rotate(9.000000) translate(-1141.635670, -109.306082) "></path>
            <path d="M1201.98838,60.8060824 C1200.76839,60.8060824 1199.52931,60.8443675 1198.30523,60.9204873 C1180.81418,62.0073334 1144.79758,70.3931189 1116.92401,77.8789797 C1089.35118,85.2842165 1055.42336,95.6058763 1042.89819,102.366122 C1037.57498,105.239305 1034.64741,109.731723 1034.19529,115.718159 C1033.82772,120.588473 1035.16501,126.339343 1038.06188,132.348751 C1043.93678,144.536471 1055.928,157.14893 1067.47868,157.674111 C1069.39765,157.761942 1071.39232,157.806082 1073.40541,157.806082 C1113.52523,157.806082 1165.01707,140.533652 1210.44715,125.294386 C1219.04299,122.411293 1227.16215,119.688098 1235.03036,117.13786 C1242.08024,114.853366 1247.08022,110.9073 1249.48951,105.726201 C1251.61034,101.166673 1251.6833,95.7738802 1249.70023,90.1306583 C1247.10477,82.7443387 1241.08938,75.4607133 1233.19458,70.1476439 C1224.11525,64.0359926 1213.32425,60.8060824 1201.98838,60.8060824 M1201.98838,63.2734438 C1240.47428,63.2734438 1263.93638,105.022206 1233.38416,114.92273 C1183.83789,130.980847 1120.06093,155.338721 1073.40541,155.338721 C1071.48779,155.338721 1069.59337,155.297283 1067.73577,155.212606 C1050.93279,154.448705 1025.04231,115.192527 1045.26179,104.276773 C1066.96927,92.5606353 1167.27633,65.3268757 1198.65574,63.3774891 C1199.77821,63.3076751 1200.88773,63.2734438 1201.98838,63.2734438" id="Fill-2" transform="translate(1142.635670, 109.306082) rotate(9.000000) translate(-1142.635670, -109.306082) "></path>
            <path d="M1211.66276,75.8060824 L1211.66276,78.2731506 L1211.66003,75.8060824 C1193.82563,75.8074335 1170.84985,79.4197653 1143.36851,86.5439986 C1106.37067,96.1357505 1085.89318,104.369669 1076.9736,113.241747 C1068.24183,121.926025 1071.03723,130.292349 1074.27519,139.979577 C1074.6317,141.04828 1075.0005,142.153461 1075.35906,143.271703 C1078.31017,152.495512 1072.25838,161.209513 1072.19691,161.296433 C1071.57199,162.180488 1071.796,163.224871 1072.76787,163.960308 C1073.49045,164.506594 1074.52515,164.806082 1075.58922,164.806082 C1075.95734,164.806082 1076.32956,164.770504 1076.69222,164.696195 C1076.98794,164.635847 1106.45467,158.645168 1121.16106,156.637466 C1139.00365,154.203724 1168.83918,146.284157 1190.81101,139.683691 C1201.4947,136.474431 1237.01391,125.514938 1245.50459,119.238281 C1252.08296,114.377103 1258.57664,108.118009 1256.85487,98.5532791 C1255.32433,90.0581521 1247.41964,75.8060824 1211.66276,75.8060824 M1211.65593,78.2731506 C1246.0578,78.2717995 1251.92724,92.1090882 1253.13951,98.8442112 C1254.52458,106.537248 1250.31885,111.975337 1242.71193,117.596271 C1231.29882,126.034202 1152.35571,149.862711 1120.40297,154.221739 C1105.34758,156.276728 1075.58854,162.339014 1075.58854,162.339014 C1075.58854,162.339014 1082.26252,152.898583 1079.01978,142.762347 C1072.39155,122.046271 1063.24932,109.965833 1144.73786,88.8403806 C1174.44363,81.139237 1196.00499,78.2740513 1211.65593,78.2731506" id="Fill-10" transform="translate(1164.135670, 120.306082) rotate(9.000000) translate(-1164.135670, -120.306082) "></path>
        </g>
        <g id="Scene" opacity="0.604073661">
            <ellipse id="Hill" fill="#8CBB95" cx="404.5" cy="424" rx="404.5" ry="244"></ellipse>
            <ellipse id="Hill" fill="#B8BB8C" cx="1019.5" cy="405" rx="404.5" ry="244"></ellipse>
            <ellipse id="River" fill="#C9D2E5" cx="695.5" cy="457" rx="422.5" ry="244"></ellipse>
            <ellipse id="Hill" fill="#DFE5C9" cx="497.5" cy="496" rx="404.5" ry="244"></ellipse>
            <ellipse id="Hill" fill="#C9E5CF" cx="1098" cy="509" rx="303" ry="244"></ellipse>
            <g id="Cloud" transform="translate(292.500000, 90.500000) rotate(23.000000) translate(-292.500000, -90.500000) translate(180.000000, 41.000000)" fill="#FFF2F2">
                <path d="M38.5161044,95 C36.5362544,95 34.5789883,94.957004 32.6970016,94.8714599 C22.054538,94.3922337 10.3978546,81.9780351 4.83333327,70.5410997 C-1.50382917,57.514656 0.0859363066,46.8637412 9.08593882,42.0490852 C32.0318049,29.7777587 133.401083,2.99438727 164.035035,1.10838574 C165.205289,1.03627787 166.389914,1 167.554693,1 C190.971398,1 208.76062,15.5344387 213.610671,29.2098532 C217.748304,40.8778921 212.490376,50.6397751 199.887908,54.6863255 C191.979458,57.2262245 183.823954,59.9367639 175.190084,62.8062988 C129.790406,77.8961025 78.3314148,95 38.5208949,95 L38.5161044,95" id="Fill-1"></path>
                <path d="M168.626222,0 C167.400611,0 166.155819,0.0378903965 164.926098,0.11322542 C147.354445,1.18886691 111.171872,9.48820104 83.1698558,16.896888 C55.4699603,24.2257822 21.3857915,34.4410331 8.8029018,41.1315855 C3.45515655,43.9751484 0.514102185,48.4212521 0.05989323,54.3459728 C-0.309365634,59.166077 1.03407895,64.8576603 3.94430465,70.8051152 C9.84628074,82.8671886 21.8927517,95.3496225 33.4966601,95.8693896 C35.4244791,95.9563146 37.4283422,96 39.4507024,96 C79.7554102,96 131.484535,78.9056362 177.123971,63.8234753 C185.759422,60.9701056 193.916001,58.274984 201.82047,55.7510378 C208.902841,53.4900956 213.925858,49.5847101 216.346251,44.457025 C218.476854,39.9445017 218.550157,34.607305 216.557941,29.0222606 C213.950521,21.7120887 207.907418,14.5035522 199.976231,9.24525674 C190.855058,3.19661215 180.01433,0 168.626222,0 M168.626222,2.44192461 C207.289475,2.44192461 230.8597,43.7602875 200.166684,53.558744 C150.392096,69.4513136 86.3212301,93.5580754 39.4507024,93.5580754 C37.5242536,93.5580754 35.6210975,93.5170646 33.7549358,93.43326 C16.8745306,92.6772351 -9.13526905,53.8257599 11.1773939,43.0225392 C32.9849044,31.4271864 133.75421,4.47418717 165.278229,2.54489733 C166.405873,2.47580308 167.520501,2.44192461 168.626222,2.44192461" id="Fill-2"></path>
                <path d="M179.282609,11 L179.282609,13.4393482 L179.279862,11 C161.349588,11.0013359 138.250275,14.5730796 110.621187,21.6172655 C73.4244335,31.1012448 52.8368558,39.2426475 43.8693154,48.015039 C35.0906015,56.6017407 37.9010259,64.8740613 41.1563941,74.4524441 C41.5148211,75.5091388 41.8856076,76.6019026 42.2460945,77.7075802 C45.2130732,86.8277502 39.1287412,95.4438417 39.0669435,95.5297844 C38.4386663,96.4039065 38.6638848,97.436555 39.6409759,98.1637284 C40.3674428,98.7038761 41.407705,99 42.4774927,99 C42.8475926,99 43.2218123,98.9648214 43.5864191,98.891347 C43.8837349,98.831677 73.5088904,92.9083089 88.2943458,90.9231657 C106.23286,88.5167696 136.228802,80.6861856 158.318752,74.1598826 C169.059887,70.9866815 204.770062,60.1503289 213.306391,53.9441959 C219.920124,49.1376379 226.448713,42.9488716 224.717689,33.4916102 C223.178925,25.091934 215.231734,11 179.282609,11 M179.275742,13.4393482 C213.862571,13.4380123 219.763569,27.1198259 220.982358,33.7792734 C222.374868,41.3858719 218.146528,46.762858 210.498713,52.3206356 C199.024244,60.6637587 119.656705,84.2245319 87.5321736,88.5345815 C72.3958443,90.5664811 42.4768061,96.5606518 42.4768061,96.5606518 C42.4768061,96.5606518 49.1866686,87.2262929 45.9264939,77.203947 C39.2626364,56.7206356 30.0712508,44.7759336 111.997903,23.8878454 C141.863384,16.2732315 163.540662,13.4402388 179.275742,13.4393482" id="Fill-10"></path>
            </g>
            <g id="Cloud" transform="translate(607.000000, 95.000000) rotate(9.000000) translate(-607.000000, -95.000000) translate(509.000000, 44.000000)" fill="#FFF2F2">
                <path d="M33.9984384,96.9106788 C32.2868858,96.9106788 30.5948567,96.8672254 28.9679056,96.7807713 C19.767645,96.2964469 9.69060564,83.7501824 4.88015493,72.1915774 C-0.598233166,59.0265546 0.776096805,48.2623322 8.55647281,43.3964564 C28.3928523,30.9945839 116.025172,3.92628298 142.507795,2.02021761 C143.519462,1.94734263 144.543554,1.91067883 145.550489,1.91067883 C165.793902,1.91067883 181.172436,16.5997392 185.365236,30.4206369 C188.942162,42.2128038 184.396757,52.0785366 173.502101,56.1681355 C166.665356,58.7350547 159.615038,61.4744295 152.151178,64.3744915 C112.903792,79.624825 68.418216,96.9106788 34.0025797,96.9106788 L33.9984384,96.9106788" id="Fill-1"></path>
                <path d="M145.947323,0.715313261 C144.890375,0.715313261 143.816883,0.753598349 142.75639,0.829718112 C127.602855,1.9165642 96.3995351,10.3023497 72.2510073,17.7882105 C48.363024,25.1934473 18.9693372,35.5151071 8.11803778,42.2753528 C3.50622077,45.1485361 0.969898659,49.6409534 0.578195523,55.6273899 C0.259752099,60.4977035 1.41831899,66.2485742 3.92805492,72.2579817 C9.01783246,84.4457017 19.4065322,97.058161 29.4135725,97.5833423 C31.0760953,97.6711728 32.8041974,97.7153133 34.5482512,97.7153133 C69.3064395,97.7153133 113.916877,80.4428832 153.275657,65.2036165 C160.722744,62.3205241 167.756857,59.5973283 174.573555,57.047091 C180.681288,54.7625973 185.013064,50.8165308 187.100375,45.6354323 C188.937776,41.0759035 189.000992,35.6831111 187.282934,30.0398891 C185.034333,22.6535696 179.82285,15.3699442 172.983111,10.0568748 C165.117145,3.94522346 155.76826,0.715313261 145.947323,0.715313261 M145.947323,3.18267458 C179.289945,3.18267458 199.616561,44.9314371 173.147354,54.8319609 C130.222481,70.8900781 74.9687062,95.2479519 34.5482512,95.2479519 C32.88691,95.2479519 31.2456561,95.206514 29.6363057,95.1218364 C15.078892,94.3579362 -7.35157745,55.1017582 10.1657649,44.1860039 C28.9722418,32.4698661 115.874212,5.23610654 143.060063,3.28671994 C144.032527,3.21690596 144.993765,3.18267458 145.947323,3.18267458" id="Fill-2"></path>
                <path d="M155.794374,12.4665536 L155.794374,14.9336217 L155.79201,12.4665536 C140.354714,12.4679046 120.467071,16.0802364 96.6794601,23.2044698 C64.6544478,32.7962216 46.9293141,41.0301403 39.2085975,49.902218 C31.6504534,58.5864959 34.0701236,66.9528201 36.8728738,76.6400482 C37.181466,77.7087507 37.5006993,78.8139324 37.811065,79.9321745 C40.3655227,89.1559828 35.1271406,97.8699844 35.073935,97.9569037 C34.5330119,98.840959 34.7269166,99.8853422 35.5681555,100.620779 C36.1936163,101.167065 37.0892431,101.466554 38.0102903,101.466554 C38.3289324,101.466554 38.6511216,101.430975 38.9650343,101.356666 C39.2210121,101.296318 64.7271621,95.3056387 77.4568857,93.297937 C92.9012748,90.8641955 118.726658,82.9446277 137.745278,76.3441621 C146.992994,73.1349019 177.738117,62.175409 185.087577,55.8987517 C190.781753,51.0375737 196.402624,44.7784805 194.912278,35.2137502 C193.587459,26.7186232 186.745226,12.4665536 155.794374,12.4665536 M155.788462,14.9336217 C185.566427,14.9322706 190.646966,28.7695593 191.696298,35.5046823 C192.895196,43.1977194 189.254754,48.6358077 182.670271,54.2567418 C172.791183,62.6946732 104.458703,86.5231825 76.8006839,90.8822099 C63.768871,92.9371993 38.0096991,98.9994855 38.0096991,98.9994855 C38.0096991,98.9994855 43.7866396,89.5590543 40.9797512,79.4228181 C35.2424193,58.7067418 27.3289803,46.6263046 97.8647615,25.5008517 C123.577822,17.7997081 142.241147,14.9345224 155.788462,14.9336217" id="Fill-10"></path>
            </g>
            <g id="Cloud" transform="translate(955.000000, 79.000000) rotate(9.000000) translate(-955.000000, -79.000000) translate(857.000000, 28.000000)" fill="#FFF2F2">
                <path d="M33.9984384,96.9106788 C32.2868858,96.9106788 30.5948567,96.8672254 28.9679056,96.7807713 C19.767645,96.2964469 9.69060564,83.7501824 4.88015493,72.1915774 C-0.598233166,59.0265546 0.776096805,48.2623322 8.55647281,43.3964564 C28.3928523,30.9945839 116.025172,3.92628298 142.507795,2.02021761 C143.519462,1.94734263 144.543554,1.91067883 145.550489,1.91067883 C165.793902,1.91067883 181.172436,16.5997392 185.365236,30.4206369 C188.942162,42.2128038 184.396757,52.0785366 173.502101,56.1681355 C166.665356,58.7350547 159.615038,61.4744295 152.151178,64.3744915 C112.903792,79.624825 68.418216,96.9106788 34.0025797,96.9106788 L33.9984384,96.9106788" id="Fill-1"></path>
                <path d="M145.947323,0.715313261 C144.890375,0.715313261 143.816883,0.753598349 142.75639,0.829718112 C127.602855,1.9165642 96.3995351,10.3023497 72.2510073,17.7882105 C48.363024,25.1934473 18.9693372,35.5151071 8.11803778,42.2753528 C3.50622077,45.1485361 0.969898659,49.6409534 0.578195523,55.6273899 C0.259752099,60.4977035 1.41831899,66.2485742 3.92805492,72.2579817 C9.01783246,84.4457017 19.4065322,97.058161 29.4135725,97.5833423 C31.0760953,97.6711728 32.8041974,97.7153133 34.5482512,97.7153133 C69.3064395,97.7153133 113.916877,80.4428832 153.275657,65.2036165 C160.722744,62.3205241 167.756857,59.5973283 174.573555,57.047091 C180.681288,54.7625973 185.013064,50.8165308 187.100375,45.6354323 C188.937776,41.0759035 189.000992,35.6831111 187.282934,30.0398891 C185.034333,22.6535696 179.82285,15.3699442 172.983111,10.0568748 C165.117145,3.94522346 155.76826,0.715313261 145.947323,0.715313261 M145.947323,3.18267458 C179.289945,3.18267458 199.616561,44.9314371 173.147354,54.8319609 C130.222481,70.8900781 74.9687062,95.2479519 34.5482512,95.2479519 C32.88691,95.2479519 31.2456561,95.206514 29.6363057,95.1218364 C15.078892,94.3579362 -7.35157745,55.1017582 10.1657649,44.1860039 C28.9722418,32.4698661 115.874212,5.23610654 143.060063,3.28671994 C144.032527,3.21690596 144.993765,3.18267458 145.947323,3.18267458" id="Fill-2"></path>
                <path d="M155.794374,12.4665536 L155.794374,14.9336217 L155.79201,12.4665536 C140.354714,12.4679046 120.467071,16.0802364 96.6794601,23.2044698 C64.6544478,32.7962216 46.9293141,41.0301403 39.2085975,49.902218 C31.6504534,58.5864959 34.0701236,66.9528201 36.8728738,76.6400482 C37.181466,77.7087507 37.5006993,78.8139324 37.811065,79.9321745 C40.3655227,89.1559828 35.1271406,97.8699844 35.073935,97.9569037 C34.5330119,98.840959 34.7269166,99.8853422 35.5681555,100.620779 C36.1936163,101.167065 37.0892431,101.466554 38.0102903,101.466554 C38.3289324,101.466554 38.6511216,101.430975 38.9650343,101.356666 C39.2210121,101.296318 64.7271621,95.3056387 77.4568857,93.297937 C92.9012748,90.8641955 118.726658,82.9446277 137.745278,76.3441621 C146.992994,73.1349019 177.738117,62.175409 185.087577,55.8987517 C190.781753,51.0375737 196.402624,44.7784805 194.912278,35.2137502 C193.587459,26.7186232 186.745226,12.4665536 155.794374,12.4665536 M155.788462,14.9336217 C185.566427,14.9322706 190.646966,28.7695593 191.696298,35.5046823 C192.895196,43.1977194 189.254754,48.6358077 182.670271,54.2567418 C172.791183,62.6946732 104.458703,86.5231825 76.8006839,90.8822099 C63.768871,92.9371993 38.0096991,98.9994855 38.0096991,98.9994855 C38.0096991,98.9994855 43.7866396,89.5590543 40.9797512,79.4228181 C35.2424193,58.7067418 27.3289803,46.6263046 97.8647615,25.5008517 C123.577822,17.7997081 142.241147,14.9345224 155.788462,14.9336217" id="Fill-10"></path>
            </g>
            <g id="Cloud" transform="translate(1316.000000, 112.000000) rotate(9.000000) translate(-1316.000000, -112.000000) translate(1203.000000, 61.000000)" fill="#FFF2F2">
                <path d="M39.0051118,96.7347342 C37.0345135,96.7347342 35.0863934,96.6912808 33.2132011,96.6048267 C22.6204686,96.1205023 11.0182557,83.5742378 5.4797368,72.0156328 C-0.827812733,58.85061 0.754523937,48.0863876 9.71247036,43.2205118 C32.5511127,30.8186393 133.446702,3.7503384 163.937506,1.84427303 C165.102291,1.77139805 166.28138,1.73473424 167.440716,1.73473424 C190.747997,1.73473424 208.454092,16.4237947 213.281479,30.2446923 C217.399778,42.0368593 212.166419,51.9025921 199.622842,55.9921909 C191.751347,58.5591101 183.633953,61.298485 175.040428,64.1985469 C129.852898,79.4488804 78.6343693,96.7347342 39.00988,96.7347342 L39.0051118,96.7347342" id="Fill-1"></path>
                <path d="M168.504712,0.578299776 C167.284723,0.578299776 166.045641,0.616584864 164.82156,0.692704628 C147.330512,1.77955072 111.313914,10.1653362 83.4403473,17.651197 C55.8675156,25.0564339 21.9396962,35.3780936 9.41452616,42.1383393 C4.09131185,45.0115226 1.16374856,49.5039399 0.711623136,55.4903764 C0.34405812,60.36069 1.68134012,66.1115607 4.57821616,72.1209683 C10.453119,84.3086882 22.4443309,96.9211475 33.9950104,97.4463288 C35.9139862,97.5341593 37.9086572,97.5782998 39.9217405,97.5782998 C80.0415643,97.5782998 131.5334,80.3058697 176.963481,65.066603 C185.559319,62.1835106 193.678483,59.4603148 201.546693,56.9100776 C208.596576,54.6255838 213.596551,50.6795173 216.005841,45.4984188 C218.126671,40.93889 218.199638,35.5460976 216.21656,29.9028756 C213.621101,22.5165561 207.605719,15.2329307 199.710914,9.91986127 C190.63158,3.80820997 179.840581,0.578299776 168.504712,0.578299776 M168.504712,3.0456611 C206.99061,3.0456611 230.452715,44.7944236 199.900493,54.6949474 C150.354229,70.7530646 86.5772658,95.1109385 39.9217405,95.1109385 C38.0041286,95.1109385 36.1097026,95.0695005 34.2521013,94.9848229 C17.4491292,94.2209228 -8.4413595,54.9647447 11.7781261,44.0489904 C33.4856021,32.3328527 133.792663,5.09909306 165.172077,3.14970646 C166.294548,3.07989247 167.404063,3.0456611 168.504712,3.0456611" id="Fill-2"></path>
                <path d="M179.63517,12.0795305 L179.63517,14.5465986 L179.632438,12.0795305 C161.798048,12.0808816 138.82226,15.6932133 111.340921,22.8174467 C74.3430811,32.4091986 53.8655975,40.6431172 44.9460118,49.5151949 C36.2142429,58.1994728 39.0096383,66.5657971 42.2475981,76.2530251 C42.6041083,77.3217277 42.972912,78.4269093 43.3314712,79.5451514 C46.2825837,88.7689597 40.2307883,97.4829614 40.169321,97.5698807 C39.5444036,98.4539359 39.7684177,99.4983191 40.7402837,100.233756 C41.4628658,100.780042 42.4975651,101.079531 43.561632,101.079531 C43.9297527,101.079531 44.3019713,101.043952 44.6646282,100.969643 C44.9603542,100.909295 74.4270864,94.9186156 89.1334752,92.910914 C106.976061,90.4771725 136.811597,82.5576046 158.783419,75.9571391 C169.467115,72.7478789 204.986326,61.7883859 213.477007,55.5117287 C220.055372,50.6505507 226.549049,44.3914575 224.827282,34.8267272 C223.296747,26.3316002 215.392054,12.0795305 179.63517,12.0795305 M179.62834,14.5465986 C214.030212,14.5452476 219.899655,28.3825363 221.111926,35.1176593 C222.496989,42.8106964 218.291261,48.2487846 210.684343,53.8697188 C199.271235,62.3076501 120.328121,86.1361594 88.3753787,90.4951868 C73.3199923,92.5501762 43.560949,98.6124624 43.560949,98.6124624 C43.560949,98.6124624 50.23493,89.1720313 46.9921893,79.0357951 C40.3639674,58.3197188 31.2217336,46.2392816 112.710276,25.1138287 C142.416047,17.4126851 163.977404,14.5474994 179.62834,14.5465986" id="Fill-10"></path>
            </g>
            <path d="M1048.19585,79.0085287 C1034.47517,78.7953117 1021.79847,87.9100016 1018.09069,101.770902 C1016.82559,106.501626 1016.74905,111.275218 1017.66367,115.779034 C1011.97982,117.252925 1006.86081,120.904322 1003.70135,126.384448 C1002.38789,128.675969 1001.48373,131.180708 1001.02981,133.783526 C1000.88557,134.611218 1001.27371,135.440864 1002.00107,135.859559 C1002.72842,136.278255 1003.6396,136.196556 1004.28112,135.655123 C1010.29703,130.575396 1018.82528,129.812079 1025.64543,133.742903 C1026.30468,134.125122 1026.92451,134.553801 1027.52207,135.00425 C1025.86625,141.113478 1009.7827,206.411587 1071.84825,230.984734 C1077.65508,233.283886 1083.06912,234.84441 1088.12516,235.80052 L1088.12516,256.955013 C1080.55662,257.697008 1068.47221,259.349103 1068.47221,262.446361 C1068.47221,264.827658 1075.67478,266.36282 1082.44706,267.285489 C1078.30994,272.733744 1074.30074,278.920403 1075.98178,280.60392 C1078.45454,283.080379 1090.56664,273.311001 1095.82482,268.854317 C1102.60405,270.080876 1117.96905,272.475864 1118.87401,269.09312 C1119.72016,265.930551 1107.05391,260.797856 1100.09554,258.233417 L1100.09554,236.982191 C1135.88853,237.004635 1149.48846,203.383232 1152.67473,193.660088 C1153.37556,193.702732 1154.07926,193.700487 1154.782,193.637645 C1157.6805,193.417694 1160.48803,192.388193 1162.84021,190.677968 C1165.26413,188.915449 1167.15154,186.469962 1168.24403,183.67682 C1169.00862,181.721957 1169.2193,179.630635 1169.1683,177.540659 C1170.9653,177.677567 1172.77226,177.540659 1174.43495,176.78834 C1176.95662,175.655148 1178.97052,173.578122 1180.02734,171.020416 C1181.27178,168.00867 1181.09159,164.54423 1179.54262,161.67792 C1178.81698,160.334878 1177.79902,159.193606 1176.61236,158.274753 C1177.19875,157.908693 1177.82376,157.605251 1178.34088,157.139989 C1180.13851,155.522682 1181.41407,153.380637 1181.97724,151.02717 C1182.66952,148.134152 1182.21872,145.077743 1180.81914,142.499388 C1182.84349,141.653029 1184.76737,140.57864 1186.371,139.069961 C1188.65143,136.924774 1190.3604,134.206145 1191.30255,131.218189 C1192.68114,126.846567 1192.35778,122.022028 1190.40948,117.873274 C1188.90816,114.676815 1186.47131,111.990729 1183.49691,110.127662 L1195.30049,99.984368 C1196.68179,98.7975348 1195.88513,96.5298037 1194.06603,96.4707763 C1193.99979,96.4707763 1193.93291,96.470103 1193.86651,96.4707763 C1160.32211,98.7452406 1128.54733,118.388586 1111.48293,147.401135 C1110.95911,148.291709 1110.45221,149.192606 1109.95552,150.098666 C1104.42936,159.684678 1090.13522,157.565975 1086.64753,148.905998 C1081.13087,134.840634 1073.42833,122.449135 1063.15568,112.193173 C1065.10007,110.829931 1067.52,110.187587 1069.98414,110.502475 C1070.44893,110.562417 1070.90175,110.3258 1071.11855,109.909704 C1071.33534,109.493607 1071.27013,108.986274 1070.95518,108.638734 C1070.00904,107.592624 1068.88486,106.722025 1067.63683,106.066214 C1066.17094,105.302224 1064.61814,104.873321 1063.06535,104.750329 C1062.77423,104.727885 1062.48303,104.714419 1062.19247,104.712174 C1060.40777,104.712174 1058.64772,105.097985 1057.04114,105.845367 C1059.84189,103.209556 1063.75787,101.956064 1067.68671,102.617261 C1068.27922,102.716714 1068.87091,102.436147 1069.1696,101.914097 C1069.46829,101.392046 1069.41082,100.738938 1069.02555,100.277261 C1067.86514,98.8875348 1066.46884,97.7132703 1064.90136,96.8087813 C1062.13924,95.2273845 1059.08735,94.5996288 1056.12932,94.82317 C1052.91998,95.0657885 1049.8258,96.3141179 1047.32766,98.4245173 C1051.46287,93.6028955 1057.37192,90.4241667 1063.97869,89.8202015 C1065.17084,89.7111672 1066.16905,88.8700961 1066.4803,87.7124138 C1066.79154,86.5547315 1066.34995,85.3254023 1065.37363,84.631622 C1062.43379,82.5436665 1059.14912,80.9914468 1055.67109,80.0454366 C1055.66788,80.0454312 1055.66467,80.0454312 1055.66145,80.0454366 C1053.62059,79.4975811 1051.5711,79.1703492 1049.53909,79.0493766 C1049.09459,79.0224439 1048.65065,79.0067332 1048.20807,79 L1048.19529,79 L1048.19585,79.0085287 Z" id="Cock" fill="#933061"></path>
        </g>
    </g>
</svg>