<?xml version="1.0" encoding="UTF-8"?>
<svg width="2174px" height="2249px" viewBox="0 0 2174 2249" version="1.1" xmlns="http://www.w3.org/2000/svg" xmlns:xlink="http://www.w3.org/1999/xlink">
    <g stroke="none" stroke-width="1" fill="none" fill-rule="evenodd">
        <path d="M526.173196,0.0949554507 C373.205279,-2.27893082 231.876321,99.2009589 190.539311,253.523557 C176.434985,306.193846 175.581766,359.341411 185.778547,409.485386 C122.410917,425.895187 65.3405516,466.548614 30.1166386,527.562489 C15.4731479,553.075519 5.3929186,580.962436 0.332316683,609.94134 C-1.27575351,619.156581 3.05155718,628.393578 11.1606006,633.055193 C19.2696439,637.716808 29.428114,636.807198 36.5802677,630.779064 C103.649938,574.223098 198.728966,565.724585 274.764966,609.489052 C282.114719,613.744556 289.024995,618.517317 295.687026,623.532464 C277.22676,691.550552 97.9158298,1418.55772 789.867208,1692.14686 C854.605861,1717.74485 914.965487,1735.1192 971.333872,1745.76421 L971.333872,1981.29121 C886.954288,1989.55233 752.228672,2007.9462 752.228672,2042.43002 C752.228672,2068.94259 832.528095,2086.03457 908.030302,2096.30725 C861.906694,2156.96629 817.209324,2225.84647 835.950741,2244.59018 C863.518841,2272.16224 998.553215,2163.39327 1057.17522,2113.77405 C1132.75486,2127.43015 1304.05494,2154.09514 1314.14407,2116.4328 C1323.57752,2081.22182 1182.36512,2024.07613 1104.78818,1995.52453 L1104.78818,1758.92054 C1503.83417,1759.17042 1655.456,1384.84104 1690.97882,1276.58683 C1698.79214,1277.0616 1706.63746,1277.03662 1714.47211,1276.33694 C1746.78673,1273.88809 1778.08708,1262.42597 1804.31085,1243.3849 C1831.33444,1223.76161 1852.37662,1196.53438 1864.55654,1165.43647 C1873.08072,1143.67169 1875.42951,1120.38761 1874.86098,1097.11853 C1894.89515,1098.64281 1915.04051,1097.11853 1933.57731,1088.74246 C1961.69077,1076.12587 1984.14313,1053.00097 1995.92535,1024.52433 C2009.79924,990.992566 2007.79032,952.420662 1990.52133,920.508135 C1982.43134,905.55515 1971.0824,892.848611 1957.85263,882.618411 C1964.39012,878.542823 1971.35821,875.164408 1977.12342,869.984338 C1997.1647,851.977786 2011.38558,828.128975 2017.66415,801.926268 C2025.38225,769.71638 2020.35637,735.687345 2004.75291,706.980813 C2027.32179,697.557734 2048.77055,685.595846 2066.64898,668.798727 C2092.07291,644.914932 2111.12571,614.646632 2121.62945,581.37974 C2136.99894,532.707575 2133.39391,478.992776 2111.67289,432.801947 C2094.93506,397.213643 2067.76733,367.307674 2034.60661,346.564906 L2166.2014,233.632889 C2181.60112,220.419088 2172.71929,195.170934 2152.43871,194.513742 C2151.70017,194.513742 2150.95463,194.506245 2150.21434,194.513742 C1776.23729,219.836861 1421.98923,438.539255 1231.74308,761.555209 C1225.90311,771.470557 1220.25178,781.500851 1214.71432,791.588618 C1153.10472,898.316046 993.743407,874.727113 954.86017,778.309848 C893.356455,621.710818 807.48305,483.748045 692.956169,369.561617 C714.633609,354.383737 741.612701,347.232093 769.084711,350.737948 C774.266563,351.405326 779.31495,348.770917 781.731908,344.138238 C784.148866,339.50556 783.421825,333.857076 779.910527,329.987683 C769.362289,318.340647 756.82916,308.647695 742.915216,301.346121 C726.572407,292.840111 709.260727,288.064852 691.949046,286.695494 C688.70344,286.445611 685.456934,286.295682 682.217549,286.270693 C662.320427,286.270693 642.698209,290.566178 624.786851,298.887274 C656.011602,269.541042 699.669818,255.58509 743.47127,262.946636 C750.07706,264.053912 756.673594,260.930167 760.003651,255.117837 C763.333709,249.305507 762.692917,242.034014 758.397685,236.893859 C745.460632,221.421118 729.893641,208.347252 712.418262,198.276976 C681.624144,180.670237 647.599535,173.681016 614.6212,176.169848 C578.841232,178.871081 544.345092,192.76956 516.494067,216.266037 C562.596288,162.583722 628.474657,127.192826 702.131611,120.468481 C715.422555,119.25453 726.551407,109.890327 730.021355,97.0010825 C733.491303,84.1118375 728.56811,70.4249001 717.683462,62.7005834 C684.908001,39.4539898 648.288156,22.1720977 609.512578,11.6395392 C609.476766,11.6394789 609.440955,11.6394789 609.405144,11.6395392 C586.652073,5.5399009 563.802937,1.89661019 541.14863,0.549742083 C536.193038,0.249882765 531.243667,0.0749648295 526.309411,0 L526.167,0 L526.173196,0.0949554507 Z" id="Rooster" fill="#FFFFFF"></path>
    </g>
</svg>
