<?xml version="1.0" standalone="no"?>
<!DOCTYPE svg PUBLIC "-//W3C//DTD SVG 20010904//EN"
 "http://www.w3.org/TR/2001/REC-SVG-20010904/DTD/svg10.dtd">
<svg version="1.0" xmlns="http://www.w3.org/2000/svg"
 width="260.000000pt" height="260.000000pt" viewBox="0 0 260.000000 260.000000"
 preserveAspectRatio="xMidYMid meet">
<metadata>
Created by potrace 1.11, written by Peter Selinger 2001-2013
</metadata>
<g transform="translate(0.000000,260.000000) scale(0.100000,-0.100000)"
fill="#000000" stroke="none">
<path d="M787 2133 c-96 -33 -168 -135 -171 -240 -1 -51 -3 -56 -31 -68 -16
-7 -42 -25 -56 -41 -28 -31 -57 -99 -46 -110 3 -3 26 3 50 15 52 25 97 27 138
5 33 -16 33 -16 14 -104 -3 -14 -6 -68 -6 -121 0 -108 25 -228 65 -306 75
-148 225 -265 409 -318 31 -9 57 -22 58 -28 1 -14 1 -86 0 -133 -1 -30 -3 -32
-50 -38 -66 -9 -111 -25 -111 -40 0 -13 62 -36 94 -36 21 0 20 -5 -9 -48 -24
-35 -33 -72 -17 -72 14 0 85 42 123 72 36 29 39 30 106 21 159 -19 165 23 12
81 l-46 17 0 85 c0 47 4 87 8 90 5 3 22 7 39 9 157 20 280 114 356 272 37 78
41 83 81 94 46 12 89 57 95 100 2 16 10 25 25 27 30 4 71 48 75 80 2 15 -5 42
-15 60 -10 17 -14 32 -9 32 5 0 17 16 27 36 12 26 14 42 7 63 -8 24 -6 29 18
43 77 44 91 152 29 223 l-29 33 50 45 c28 25 50 50 50 56 0 27 -150 1 -275
-48 -162 -62 -322 -193 -421 -345 -63 -97 -104 -116 -177 -81 -24 11 -39 31
-62 82 -33 75 -107 192 -149 236 -33 36 -33 43 4 51 17 3 30 9 30 14 0 13 -47
32 -76 32 -14 0 -22 4 -19 10 3 6 22 10 41 10 41 0 45 20 9 44 -30 20 -81 26
-115 15 l-25 -9 24 18 c13 9 45 24 70 33 63 22 65 44 6 70 -64 28 -139 33
-198 12z"/>
</g>
</svg>
